<?xml version="1.0" encoding="utf-8"?>
<!-- Generator: Adobe Illustrator 19.0.0, SVG Export Plug-In . SVG Version: 6.00 Build 0)  -->
<svg version="1.1" xmlns="http://www.w3.org/2000/svg" xmlns:xlink="http://www.w3.org/1999/xlink" x="0px" y="0px"
	 viewBox="0 0 48 60" style="enable-background:new 0 0 48 60;" xml:space="preserve">
<style type="text/css">
	.st0{fill:#2756A3;}
	.st1{fill:#FFFFFF;}
</style>
<g id="Layer_2">
	<path id="XMLID_5_" class="st0" d="M44.7,28.4c1-2.2,1.5-4.5,1.5-7c0-10.6-9.9-20.2-22.2-20.2S1.8,10.8,1.8,21.4
		c0,2.1,0.4,4.2,1.1,6.1c4.4,13.6,21,30.9,21,30.9S39.6,41.8,44.7,28.4z"/>
</g>
<g id="Layer_3">
	<path id="XMLID_53_" class="st1" d="M24,33.7c-5.1,0-9.3-4.2-9.3-9.3c0-2.6,1.1-5.2,3.1-6.9c0.7-0.6,1.7-0.6,2.4,0.1
		c0.6,0.7,0.6,1.7-0.1,2.4c-1.3,1.1-2,2.8-2,4.4c0,3.3,2.7,6,6,6s6-2.7,6-6c0-1.7-0.7-3.3-2-4.5c-0.7-0.6-0.8-1.7-0.2-2.4
		c0.6-0.7,1.7-0.8,2.4-0.2c2,1.8,3.2,4.3,3.2,7C33.3,29.5,29.1,33.7,24,33.7"/>
	<path id="XMLID_25_" class="st1" d="M25.6,15.1c0,0.9-0.7,1.6-1.6,1.6c-0.9,0-1.6-0.7-1.6-1.6c0-0.9,0.7-1.6,1.6-1.6
		C24.9,13.5,25.6,14.2,25.6,15.1"/>
	<path id="XMLID_17_" class="st1" d="M25.9,18.9c0-1-0.8-1.9-1.9-1.9c-1,0-1.9,0.8-1.9,1.9c0,0.9,0.7,5.5,0.8,6
		C23,25.5,23.4,26,24,26c0.6,0,1-0.5,1.1-1.1C25.2,24.5,25.9,19.8,25.9,18.9"/>
</g>
</svg>
